<mxfile host="app.diagrams.net" modified="2023-10-12T19:08:16.593Z" agent="Mozilla/5.0 (Windows NT 10.0; Win64; x64) AppleWebKit/537.36 (KHTML, like Gecko) Chrome/116.0.5845.967 YaBrowser/23.9.1.967 Yowser/2.5 Safari/537.36" version="22.0.4" etag="Ucerk4nvpJZFZoym4JdO" type="github">
  <diagram name="Страница — 1" id="e6R8NmJ5cwCOA_7DKm6S">
    <mxGraphModel>
      <root>
        <mxCell id="0" />
        <mxCell id="1" parent="0" />
      </root>
    </mxGraphModel>
  </diagram>
</mxfile>
